PathFileType	4	(X/Y/Z)	C:/Users/opensim2020/Desktop/walking_exp_matlab/subject06_walking17_straight_01.trc																																																																																																																																					
DataRate	CameraRate	NumFrames	NumMarkers	Units	OrigDataRate	OrigDataStartFrame	OrigNumFrames																																																																																																																																	
100	100	8	45	mm	100	1019	305																																																																																																																																	
Frame#	Time	LFHD			RFHD			LBHD			RBHD			C7			T10			CLAV			STRN			RBAK			LSHO			LUPA			LELB			LFRM			LWRA			LWRB			LFIN			RSHO			RUPA			RELB			RFRM			RWRA			RWRB			RFIN			LASI			RASI			LPSI			RPSI			LTHI			LKNE			LTIB			LANK			LHEE			LTOE			RTHI			RKNE			RTIB			RANK			RHEE			RTOE			*39			*40			*41			*42			*43			*44		
		X1	Y1	Z1	X2	Y2	Z2	X3	Y3	Z3	X4	Y4	Z4	X5	Y5	Z5	X6	Y6	Z6	X7	Y7	Z7	X8	Y8	Z8	X9	Y9	Z9	X10	Y10	Z10	X11	Y11	Z11	X12	Y12	Z12	X13	Y13	Z13	X14	Y14	Z14	X15	Y15	Z15	X16	Y16	Z16	X17	Y17	Z17	X18	Y18	Z18	X19	Y19	Z19	X20	Y20	Z20	X21	Y21	Z21	X22	Y22	Z22	X23	Y23	Z23	X24	Y24	Z24	X25	Y25	Z25	X26	Y26	Z26	X27	Y27	Z27	X28	Y28	Z28	X29	Y29	Z29	X30	Y30	Z30	X31	Y31	Z31	X32	Y32	Z32	X33	Y33	Z33	X34	Y34	Z34	X35	Y35	Z35	X36	Y36	Z36	X37	Y37	Z37	X38	Y38	Z38	X39	Y39	Z39	X40	Y40	Z40	X41	Y41	Z41	X42	Y42	Z42	X43	Y43	Z43	X44	Y44	Z44	X45	Y45	Z45
																																																																																																																																								
39	0.38	-625.2149	1667.99353	-1133.71887	-634.78748	1657.65417	-1003.05707	-757.76331	1610.05127	-1144.53699	-764.72681	1605.01355	-1014.57245	-759.52448	1454.19263	-1080.96069	-797.19739	1126.89465	-1062.3728	-649.8075	1375.76306	-1077.82532	-611.65411	1200.1084	-1078.6698	-832.77734	1287.92419	-994.88098	-703.55292	1405.92358	-1240.20129	-716.39355	1204.97046	-1313.85364	-726.42181	1093.63855	-1329.29773	-697.16956	946.80518	-1355.79309	-631.11255	834.97827	-1316.53857	-691.30505	827.12555	-1354.40393	-642.82288	750.57227	-1358.8407	-693.29242	1414.45837	-917.66974	-726.37805	1217.33862	-826.0058	-715.7475	1095.87097	-812.00415	-698.68567	977.11353	-791.78192	-638.12982	837.20459	-819.31055	-691.47162	839.47778	-778.46887	-653.883	763.66504	-775.4425	-620.30243	964.63257	-1163.42529	-628.45416	971.49481	-944.44836	-778.54333	993.86987	-1138.99219	-777.81366	993.19067	-971.03119	-672.95831	652.03217	-1219.59583	-666.34985	488.95279	-1195.12573	-697.51202	233.54767	-1181.79175	-701.61951	62.95076	-1131.53882	-744.37347	50.18626	-1086.51807	-555.5528	34.43806	-1120.92383	-637.96478	634.75037	-886.46179	-611.33063	510.70483	-900.15619	-781.1676	314.61096	-899.00238	-906.98859	176.13715	-937.48035	-952.85028	173.16907	-984.06195	-802.78436	66.13715	-927.81561	-731.45874	1704.00916	-1083.1853	NaN	NaN	NaN	NaN	NaN	NaN	NaN	NaN	NaN	NaN	NaN	NaN	NaN	NaN	NaN
40	0.39	-619.18811	1668.32825	-1134.15967	-629.0376	1657.97156	-1003.50104	-751.7561	1610.63013	-1145.34241	-759.05194	1605.58118	-1015.45978	-753.97321	1454.68787	-1081.93909	-791.97162	1127.34619	-1063.64771	-644.35437	1376.18359	-1078.39319	-606.37006	1200.46655	-1079.32068	-827.7381	1288.32373	-996.31567	-697.27948	1406.43848	-1240.9071	-708.81311	1205.54077	-1315.08997	-717.97675	1094.14209	-1330.85315	-687.30762	947.60925	-1357.45447	-620.45001	836.36847	-1317.97717	-680.26776	828.05609	-1356.19812	-631.06714	751.90167	-1360.40137	-688.51074	1414.75232	-918.38654	-722.30371	1217.67651	-826.87427	-711.68628	1096.19312	-812.73712	-694.5744	977.45306	-792.47998	-633.68256	837.6463	-820.11145	-687.29108	839.76825	-779.42914	-649.70178	764.05426	-776.24963	-615.16864	964.70355	-1164.32922	-623.12396	972.24133	-945.37695	-773.4082	994.17181	-1139.69592	-772.59784	993.84924	-971.75714	-669.27344	651.9364	-1219.92908	-663.42969	488.83313	-1195.13672	-696.38617	233.59682	-1181.9137	-701.41699	63.06394	-1131.44531	-743.78235	50.33994	-1086.99097	-555.43732	34.21379	-1120.86206	-630.16907	636.36139	-886.60156	-601.95557	512.65051	-900.92877	-768.22388	313.25128	-899.8819	-890.54309	171.5629	-938.33899	-936.27264	167.12257	-984.97296	-783.18628	64.60352	-926.99585	-725.47473	1704.53333	-1083.85596	NaN	NaN	NaN	NaN	NaN	NaN	NaN	NaN	NaN	NaN	NaN	NaN	NaN	NaN	NaN
41	0.4	-613.2594	1668.56897	-1134.60657	-623.30579	1658.28589	-1003.98199	-745.86084	1611.15039	-1146.10315	-753.48706	1606.07251	-1016.22589	-748.58417	1455.22644	-1082.87976	-786.75281	1127.72021	-1064.78467	-639.01349	1376.5647	-1078.92517	-601.09589	1200.82544	-1079.90979	-822.67285	1288.63074	-997.73468	-691.03717	1406.86975	-1241.62585	-701.34125	1206.11804	-1316.31421	-709.5022	1094.58142	-1332.42517	-677.49805	948.47369	-1359.06165	-609.79095	837.72632	-1319.38708	-669.25769	828.85406	-1357.66309	-619.46643	753.27863	-1362.05347	-683.73749	1414.92786	-919.086	-718.3728	1217.8844	-827.69287	-707.69452	1096.43298	-813.46301	-690.58368	977.68652	-793.13776	-629.19055	838.05774	-820.67554	-683.16858	840.02496	-780.13934	-645.46991	764.29254	-776.88519	-610.11469	964.64978	-1165.21594	-618.12268	972.96173	-946.28345	-768.20648	994.39496	-1140.35767	-767.47412	994.44427	-972.43469	-665.35492	651.85828	-1219.71826	-660.40021	488.73444	-1195.1261	-695.09711	233.72263	-1182.02673	-701.52826	63.2396	-1131.45898	-743.68146	50.5072	-1086.94226	-555.48462	34.22489	-1121.2561	-622.61383	637.70667	-886.94836	-593.06079	514.42242	-901.50311	-755.31293	311.56363	-900.63495	-873.62097	166.49152	-939.17926	-918.5592	160.16284	-986.27399	-763.35986	62.99848	-925.94855	-719.48669	1704.97498	-1084.57141	NaN	NaN	NaN	NaN	NaN	NaN	NaN	NaN	NaN	NaN	NaN	NaN	NaN	NaN	NaN
42	0.41	-607.26459	1668.73621	-1134.8042	-617.81927	1658.39392	-1004.24005	-740.0199	1611.65222	-1146.76599	-748.05402	1606.5603	-1016.92743	-743.06482	1455.56641	-1083.75488	-781.64691	1128.08508	-1065.88562	-633.6795	1376.85876	-1079.44739	-595.94476	1201.09729	-1080.58093	-817.69806	1288.90417	-999.10138	-684.96021	1407.39343	-1242.38281	-693.9057	1206.59314	-1317.45398	-701.20923	1095.03406	-1333.90002	-667.72156	949.19806	-1360.51416	-599.06842	839.15442	-1320.71375	-658.44965	829.70703	-1359.18823	-607.87665	754.54199	-1363.31323	-679.08484	1415.05884	-919.66895	-714.30634	1218.05579	-828.58856	-703.73517	1096.59009	-814.18274	-686.61816	977.87311	-793.82019	-624.93597	838.37738	-821.02014	-679.01715	840.23145	-780.89655	-641.21997	764.59088	-777.44958	-605.0835	964.6048	-1166.1134	-612.73566	973.65747	-947.02106	-763.13141	994.56146	-1141.01965	-762.39868	995.00073	-973.06787	-661.68689	651.7583	-1219.8269	-657.4447	488.60602	-1195.08887	-695.53906	232.70512	-1182.38574	-701.30762	63.20495	-1131.10413	-744.23334	50.9689	-1086.65332	-555.39825	34.06909	-1121.27771	-615.42059	639.17035	-886.79706	-584.68188	516.19525	-901.96704	-742.4754	309.65964	-901.35754	-856.38177	161.08286	-939.90277	-900.65167	153.06909	-987.47711	-743.17102	61.1955	-924.70276	-713.61566	1705.37891	-1085.16174	NaN	NaN	NaN	NaN	NaN	NaN	NaN	NaN	NaN	NaN	NaN	NaN	NaN	NaN	NaN
43	0.42	-601.28131	1668.7782	-1134.89233	-612.30695	1658.49719	-1004.5661	-734.26056	1612.04297	-1147.42236	-742.62659	1606.92944	-1017.56342	-737.73041	1455.90771	-1084.64575	-776.54346	1128.37207	-1066.92871	-628.43671	1377.03442	-1079.90161	-590.88422	1201.2699	-1081.20703	-812.85059	1289.16443	-1000.37396	-678.8244	1407.76611	-1243.00403	-686.47766	1206.99011	-1318.51428	-692.9198	1095.41406	-1335.19116	-657.88892	949.86053	-1361.80261	-588.39191	840.48352	-1321.8573	-647.67322	830.55298	-1360.53125	-596.23401	755.79413	-1364.33313	-674.45654	1415.14917	-920.30042	-710.34546	1218.15674	-829.42346	-699.82458	1096.71179	-814.91382	-682.68713	978.01599	-794.50812	-620.716	838.64142	-821.26843	-675.21167	840.32153	-781.47626	-637.09528	764.75195	-777.87543	-600.04767	964.61603	-1166.73633	-607.4726	974.24878	-947.69788	-758.09247	994.66699	-1141.66064	-757.36023	995.46057	-973.74384	-657.94849	651.61926	-1219.84167	-654.49554	488.45779	-1195.01257	-693.98022	232.86049	-1182.28833	-701.08911	63.30363	-1130.93115	-744.15405	51.24053	-1086.50256	-555.48846	33.85587	-1121.39453	-608.53864	640.28595	-886.95129	-576.46051	517.83905	-902.30646	-729.63397	307.54181	-902.04401	-838.78394	155.36974	-940.55255	-882.4223	145.72102	-988.49542	-722.63397	59.25064	-923.15698	-707.78949	1705.82666	-1085.66333	NaN	NaN	NaN	NaN	NaN	NaN	NaN	NaN	NaN	NaN	NaN	NaN	NaN	NaN	NaN
44	0.43	-595.78046	1669.05017	-1135.60559	-607.01068	1658.22937	-1005.03333	-728.55652	1612.36572	-1147.95935	-737.25183	1607.20325	-1018.13971	-732.41022	1456.15979	-1085.47705	-771.54919	1128.61426	-1067.93933	-623.26605	1377.20752	-1080.37012	-585.83417	1201.42676	-1081.71936	-807.99036	1289.2998	-1001.62897	-672.70569	1407.8927	-1243.55835	-679.0882	1207.35938	-1319.54614	-684.56427	1095.71936	-1336.46216	-648.10541	950.61401	-1363.06982	-577.91046	841.74231	-1322.87317	-636.74164	831.10638	-1361.4574	-584.85358	757.13977	-1365.6217	-669.91022	1415.18921	-920.91864	-706.40491	1218.18384	-830.24188	-695.89508	1096.79944	-815.69385	-678.85699	978.08606	-795.14294	-617.05914	838.87604	-821.3891	-671.45856	840.50275	-781.85858	-633.21649	764.92877	-778.0838	-594.96576	964.51123	-1167.37183	-602.48718	974.69269	-948.2674	-753.06067	994.69684	-1142.35547	-752.10822	995.73242	-974.5401	-654.02905	651.41821	-1219.62378	-651.4928	488.24487	-1194.95825	-691.2088	233.66461	-1182.05859	-701.20502	63.34432	-1130.85657	-744.27704	51.49828	-1086.26196	-555.27435	33.87241	-1121.31531	-601.90814	641.45178	-886.70935	-568.50897	519.20483	-902.62872	-716.79962	305.16989	-902.6181	-820.76001	149.35905	-941.14581	-863.79199	138.0818	-989.61389	-701.74182	57.11196	-921.59979	-702.07056	1705.99109	-1086.07703	NaN	NaN	NaN	NaN	NaN	NaN	NaN	NaN	NaN	NaN	NaN	NaN	NaN	NaN	NaN
45	0.44	-589.79755	1668.88354	-1135.22131	-601.3418	1658.38708	-1004.99097	-722.89862	1612.68811	-1148.41003	-731.93427	1607.40149	-1018.62756	-727.23438	1456.33386	-1086.27747	-766.44635	1128.76599	-1068.89258	-618.1416	1377.27026	-1080.79004	-580.70551	1201.56934	-1082.26477	-803.14392	1289.39148	-1002.79437	-666.93579	1408.29187	-1244.19897	-671.7951	1207.6499	-1320.51672	-676.13513	1095.92517	-1337.67761	-638.37415	951.20325	-1364.11267	-567.33746	843.0459	-1323.68469	-626.08246	831.9798	-1362.74023	-573.31372	758.37488	-1366.5199	-665.41211	1415.18958	-921.50092	-702.31848	1218.18323	-831.09412	-691.9516	1096.81274	-816.40314	-675.02393	978.08893	-795.76819	-613.04816	838.8595	-821.54419	-667.69623	840.40265	-782.56445	-629.53284	765.04541	-778.20642	-589.81122	964.4187	-1167.85632	-597.49622	975.12683	-948.72021	-747.99829	994.64435	-1143.00659	-747.37421	996.10394	-975.06299	-650.33789	651.25244	-1219.81116	-648.5423	488.04639	-1194.93787	-691.33057	232.83893	-1182.40564	-700.99512	63.35876	-1130.67798	-743.88104	51.50146	-1086.09583	-554.84143	34.07257	-1121.33691	-595.58868	642.39807	-886.81555	-561.12567	520.54144	-902.84589	-703.90326	302.59631	-903.14893	-802.25122	143.09921	-941.70819	-844.3595	130.18192	-990.54248	-680.63568	54.99437	-920.04688	-696.37067	1706.16382	-1086.44104	NaN	NaN	NaN	NaN	NaN	NaN	NaN	NaN	NaN	NaN	NaN	NaN	NaN	NaN	NaN
46	0.45	-584.30774	1668.98364	-1135.40112	-596.12109	1658.12268	-1005.30414	-717.33301	1613.00488	-1148.83154	-726.68109	1607.65942	-1019.3949	-722.09686	1456.4668	-1087.03186	-761.36072	1128.83154	-1069.74622	-613.05017	1377.37292	-1081.22046	-575.71564	1201.55737	-1082.78162	-798.3219	1289.40674	-1003.94244	-661.15021	1408.53467	-1244.74695	-664.50323	1207.87585	-1321.29785	-667.96368	1096.24841	-1338.69495	-628.6264	951.82648	-1365.04626	-556.82355	844.36346	-1324.26746	-615.40991	832.81921	-1363.84021	-561.75812	759.5896	-1367.08374	-660.94409	1415.14539	-922.07166	-698.30176	1218.12085	-831.87421	-687.9942	1096.77307	-817.09375	-671.26221	978.07086	-796.2832	-609.16345	838.79114	-821.68927	-664.12128	840.42627	-783.02618	-625.87024	765.09473	-778.25409	-584.69562	964.25513	-1168.38098	-592.40668	975.54193	-949.20367	-742.95807	994.58954	-1143.64038	-742.41467	996.29688	-975.68347	-646.67212	651.11902	-1220.10876	-645.51917	487.81747	-1194.9408	-689.98834	232.87047	-1182.46118	-700.70349	63.49288	-1130.5592	-743.76367	51.80891	-1086.00842	-554.91626	33.94098	-1121.3009	-589.00409	643.3573	-886.05029	-553.86975	521.72931	-902.85571	-690.96161	299.78168	-903.54901	-783.40344	136.797	-942.19116	-824.42896	122.31837	-991.32922	-659.0708	52.86083	-918.47211	-690.80865	1706.26697	-1086.62634	NaN	NaN	NaN	NaN	NaN	NaN	NaN	NaN	NaN	NaN	NaN	NaN	NaN	NaN	NaN
